<svg xmlns="http://www.w3.org/2000/svg" width="900" height="200" viewBox="0 0 900 200" fill="none">
  <rect width="900" height="200" fill="none"/>
  <g transform="translate(20 20)" stroke-linecap="round" stroke-width="12" fill="none">
    <path d="M120 40 A60 60 0 1 0 120 160" stroke="#1E8E8B"/>
    <line x1="70" y1="100" x2="150" y2="100" stroke="#1E8E8B"/>
    <polyline points="140 88 160 100 140 112" stroke="#1E8E8B" stroke-linejoin="round"/>
  </g>
  <g transform="translate(215.22 120)" fill="#1E8E8B">
    <path d="M64.31-18.33L64.31-3.84Q59.34-1.27 53.95 0.05Q48.56 1.36 42.70 1.36L42.70 1.36Q25.22 1.36 15-8.41Q4.78-18.19 4.78-34.92L4.78-34.92Q4.78-51.70 15-61.48Q25.22-71.25 42.70-71.25L42.70-71.25Q48.56-71.25 53.95-69.94Q59.34-68.63 64.31-66.05L64.31-66.05L64.31-51.56Q59.30-54.98 54.42-56.58Q49.55-58.17 44.16-58.17L44.16-58.17Q34.50-58.17 28.97-51.98Q23.44-45.80 23.44-34.92L23.44-34.92Q23.44-24.09 28.97-17.91Q34.50-11.72 44.16-11.72L44.16-11.72Q49.55-11.72 54.42-13.31Q59.30-14.91 64.31-18.33L64.31-18.33ZM78.52 0L78.52-72.94L95.30-72.94L95.30 0L78.52 0ZM143.67-23.63L134.95-23.63Q129.70-23.63 127.05-21.84Q124.41-20.06 124.41-16.59L124.41-16.59Q124.41-13.41 126.54-11.60Q128.67-9.80 132.47-9.80L132.47-9.80Q137.20-9.80 140.44-13.20Q143.67-16.59 143.67-21.70L143.67-21.70L143.67-23.63ZM160.59-29.95L160.59-29.95L160.59 0L143.67 0L143.67-7.78Q140.30-3 136.08-0.82Q131.86 1.36 125.81 1.36L125.81 1.36Q117.66 1.36 112.57-3.40Q107.48-8.16 107.48-15.75L107.48-15.75Q107.48-24.98 113.84-29.30Q120.19-33.61 133.78-33.61L133.78-33.61L143.67-33.61L143.67-34.92Q143.67-38.91 140.53-40.76Q137.39-42.61 130.73-42.61L130.73-42.61Q125.34-42.61 120.70-41.53Q116.06-40.45 112.08-38.30L112.08-38.30L112.08-51.09Q117.47-52.41 122.91-53.09Q128.34-53.77 133.78-53.77L133.78-53.77Q147.98-53.77 154.29-48.16Q160.59-42.56 160.59-29.95ZM215.16-53.39L215.20-38.20Q213-39.23 210.82-39.73Q208.64-40.22 206.44-40.22L206.44-40.22Q199.97-40.22 196.48-36.07Q192.98-31.92 192.98-24.19L192.98-24.19L192.98 0L176.20 0L176.20-52.50L192.98-52.50L192.98-43.88Q196.22-49.03 200.41-51.40Q204.61-53.77 210.47-53.77L210.47-53.77Q211.31-53.77 212.30-53.70Q213.28-53.63 215.16-53.39L215.16-53.39ZM223.55 0L223.55-52.50L240.33-52.50L240.33 0L223.55 0ZM223.55-59.25L223.55-72.94L240.33-72.94L240.33-59.25L223.55-59.25ZM305.91-67.78L305.91-67.78L305.91-52.97Q300.14-55.55 294.66-56.86Q289.17-58.17 284.30-58.17L284.30-58.17Q277.83-58.17 274.73-56.39Q271.64-54.61 271.64-50.86L271.64-50.86Q271.64-48.05 273.73-46.48Q275.81-44.91 281.30-43.78L281.30-43.78L288.98-42.23Q300.66-39.89 305.58-35.11Q310.50-30.33 310.50-21.52L310.50-21.52Q310.50-9.94 303.63-4.29Q296.77 1.36 282.66 1.36L282.66 1.36Q276 1.36 269.30 0.09Q262.59-1.17 255.89-3.66L255.89-3.66L255.89-18.89Q262.59-15.33 268.85-13.52Q275.11-11.72 280.92-11.72L280.92-11.72Q286.83-11.72 289.97-13.69Q293.11-15.66 293.11-19.31L293.11-19.31Q293.11-22.59 290.98-24.38Q288.84-26.16 282.47-27.56L282.47-27.56L275.48-29.11Q264.98-31.36 260.13-36.28Q255.28-41.20 255.28-49.55L255.28-49.55Q255.28-60 262.03-65.63Q268.78-71.25 281.44-71.25L281.44-71.25Q287.20-71.25 293.30-70.38Q299.39-69.52 305.91-67.78ZM378-26.39L378-26.39L378-21.61L338.77-21.61Q339.38-15.70 343.03-12.75Q346.69-9.80 353.25-9.80L353.25-9.80Q358.55-9.80 364.10-11.37Q369.66-12.94 375.52-16.13L375.52-16.13L375.52-3.19Q369.56-0.94 363.61 0.21Q357.66 1.36 351.70 1.36L351.70 1.36Q337.45 1.36 329.55-5.88Q321.66-13.13 321.66-26.20L321.66-26.20Q321.66-39.05 329.41-46.41Q337.17-53.77 350.77-53.77L350.77-53.77Q363.14-53.77 370.57-46.31Q378-38.86 378-26.39ZM338.95-31.97L360.75-31.97Q360.75-36.75 357.96-39.68Q355.17-42.61 350.67-42.61L350.67-42.61Q345.80-42.61 342.75-39.87Q339.70-37.13 338.95-31.97L338.95-31.97ZM443.48-31.97L443.48-31.97L443.48 0L426.61 0L426.61-5.20L426.61-24.47Q426.61-31.27 426.30-33.84Q426-36.42 425.25-37.64L425.25-37.64Q424.27-39.28 422.58-40.20Q420.89-41.11 418.73-41.11L418.73-41.11Q413.48-41.11 410.48-37.05Q407.48-33 407.48-25.83L407.48-25.83L407.48 0L390.70 0L390.70-52.50L407.48-52.50L407.48-44.81Q411.28-49.41 415.55-51.59Q419.81-53.77 424.97-53.77L424.97-53.77Q434.06-53.77 438.77-48.19Q443.48-42.61 443.48-31.97ZM494.77-44.81L494.77-44.81L494.77-72.94L511.64-72.94L511.64 0L494.77 0L494.77-7.59Q491.30-2.95 487.13-0.80Q482.95 1.36 477.47 1.36L477.47 1.36Q467.77 1.36 461.53-6.35Q455.30-14.06 455.30-26.20L455.30-26.20Q455.30-38.34 461.53-46.05Q467.77-53.77 477.47-53.77L477.47-53.77Q482.91-53.77 487.10-51.59Q491.30-49.41 494.77-44.81ZM483.70-10.83L483.70-10.83Q489.09-10.83 491.93-14.77Q494.77-18.70 494.77-26.20L494.77-26.20Q494.77-33.70 491.93-37.64Q489.09-41.58 483.70-41.58L483.70-41.58Q478.36-41.58 475.52-37.64Q472.69-33.70 472.69-26.20L472.69-26.20Q472.69-18.70 475.52-14.77Q478.36-10.83 483.70-10.83Z"/>
  </g>
</svg>
