<svg xmlns="http://www.w3.org/2000/svg" width="1200" height="630" viewBox="0 0 1200 630" fill="none">
  <defs>
    <linearGradient id="bg" x1="0" y1="0" x2="1" y2="1">
      <stop offset="0" stop-color="#f8fafc" />
      <stop offset="0.55" stop-color="#ffffff" />
      <stop offset="1" stop-color="#ecfdf5" />
    </linearGradient>
  </defs>
  <rect width="1200" height="630" fill="url(#bg)" />
  <circle cx="920" cy="-40" r="260" fill="#d1fae5" opacity="0.7" />
  <circle cx="-40" cy="560" r="240" fill="#e2e8f0" opacity="0.6" />
  <g transform="translate(120 180)">
    <rect width="120" height="120" rx="32" fill="#0f172a" />
    <g transform="translate(24 24) scale(4.5)">
      <g clip-path="url(#globeClip)">
        <path
          fill-rule="evenodd"
          clip-rule="evenodd"
          d="M10.27 14.1a6.5 6.5 0 0 0 3.67-3.45q-1.24.21-2.7.34-.31 1.83-.97 3.1M8 16A8 8 0 1 0 8 0a8 8 0 0 0 0 16m.48-1.52a7 7 0 0 1-.96 0H7.5a4 4 0 0 1-.84-1.32q-.38-.89-.63-2.08a40 40 0 0 0 3.92 0q-.25 1.2-.63 2.08a4 4 0 0 1-.84 1.31zm2.94-4.76q1.66-.15 2.95-.43a7 7 0 0 0 0-2.58q-1.3-.27-2.95-.43a18 18 0 0 1 0 3.44m-1.27-3.54a17 17 0 0 1 0 3.64 39 39 0 0 1-4.3 0 17 17 0 0 1 0-3.64 39 39 0 0 1 4.3 0m1.1-1.17q1.45.13 2.69.34a6.5 6.5 0 0 0-3.67-3.44q.65 1.26.98 3.1M8.48 1.5l.01.02q.41.37.84 1.31.38.89.63 2.08a40 40 0 0 0-3.92 0q.25-1.2.63-2.08a4 4 0 0 1 .85-1.32 7 7 0 0 1 .96 0m-2.75.4a6.5 6.5 0 0 0-3.67 3.44 29 29 0 0 1 2.7-.34q.31-1.83.97-3.1M4.58 6.28q-1.66.16-2.95.43a7 7 0 0 0 0 2.58q1.3.27 2.95.43a18 18 0 0 1 0-3.44m.17 4.71q-1.45-.12-2.69-.34a6.5 6.5 0 0 0 3.67 3.44q-.65-1.27-.98-3.1"
          fill="#ecfdf5"
        />
      </g>
      <defs>
        <clipPath id="globeClip">
          <rect width="16" height="16" fill="#fff" />
        </clipPath>
      </defs>
    </g>
  </g>
  <text x="260" y="250" fill="#0f172a" font-family="'Fraunces', 'Times New Roman', serif" font-size="64" font-weight="600">
    ClariSend
  </text>
  <text x="260" y="310" fill="#475569" font-family="'Space Grotesk', 'Helvetica Neue', sans-serif" font-size="30">
    Transparent cross-border money transfers.
  </text>
  <text x="260" y="360" fill="#475569" font-family="'Space Grotesk', 'Helvetica Neue', sans-serif" font-size="24">
    Compare routes, lock rates, and send with confidence.
  </text>
</svg>
